<svg width="1280" height="720" viewBox="0 0 1280 720" fill="none" xmlns="http://www.w3.org/2000/svg">
  <rect width="1280" height="720" fill="#EFF6FF"/>
  <rect x="64" y="48" width="1152" height="624" rx="32" fill="white" stroke="#CBD5E1" stroke-width="2"/>
  <text x="104" y="120" font-family="Inter, Arial, sans-serif" font-size="44" font-weight="800" fill="#0F172A">Job Search Command Center</text>
  <text x="104" y="160" font-family="Inter, Arial, sans-serif" font-size="18" fill="#64748B">Analytics, editing, search, and sorting in one recruiter-ready dashboard</text>
  <rect x="104" y="214" width="320" height="112" rx="24" fill="#DBEAFE"/>
  <rect x="480" y="214" width="320" height="112" rx="24" fill="#FFEDD5"/>
  <rect x="856" y="214" width="320" height="112" rx="24" fill="#DCFCE7"/>
  <text x="136" y="258" font-family="Inter, Arial, sans-serif" font-size="18" fill="#475569">Total Applications</text>
  <text x="136" y="300" font-family="Inter, Arial, sans-serif" font-size="40" font-weight="800" fill="#2563EB">24</text>
  <text x="512" y="258" font-family="Inter, Arial, sans-serif" font-size="18" fill="#475569">Interviews</text>
  <text x="512" y="300" font-family="Inter, Arial, sans-serif" font-size="40" font-weight="800" fill="#F97316">8</text>
  <text x="888" y="258" font-family="Inter, Arial, sans-serif" font-size="18" fill="#475569">Offers</text>
  <text x="888" y="300" font-family="Inter, Arial, sans-serif" font-size="40" font-weight="800" fill="#16A34A">3</text>
  <rect x="104" y="368" width="520" height="240" rx="24" fill="#F8FAFC" stroke="#E2E8F0"/>
  <rect x="656" y="368" width="520" height="240" rx="24" fill="#F8FAFC" stroke="#E2E8F0"/>
  <text x="136" y="414" font-family="Inter, Arial, sans-serif" font-size="22" font-weight="700" fill="#0F172A">Status Distribution</text>
  <circle cx="364" cy="506" r="82" fill="#2563EB"/>
  <path d="M364 424A82 82 0 0 1 443.4 526.4L364 506V424Z" fill="#F97316"/>
  <path d="M443.4 526.4A82 82 0 0 1 364 588L364 506L443.4 526.4Z" fill="#16A34A"/>
  <circle cx="364" cy="506" r="48" fill="#F8FAFC"/>
  <text x="688" y="414" font-family="Inter, Arial, sans-serif" font-size="22" font-weight="700" fill="#0F172A">Applications Per Company</text>
  <rect x="712" y="500" width="54" height="68" rx="12" fill="#2563EB"/>
  <rect x="802" y="460" width="54" height="108" rx="12" fill="#2563EB"/>
  <rect x="892" y="434" width="54" height="134" rx="12" fill="#2563EB"/>
  <rect x="982" y="474" width="54" height="94" rx="12" fill="#2563EB"/>
  <text x="704" y="594" font-family="Inter, Arial, sans-serif" font-size="14" fill="#64748B">Google</text>
  <text x="798" y="594" font-family="Inter, Arial, sans-serif" font-size="14" fill="#64748B">Amazon</text>
  <text x="892" y="594" font-family="Inter, Arial, sans-serif" font-size="14" fill="#64748B">CGI</text>
  <text x="978" y="594" font-family="Inter, Arial, sans-serif" font-size="14" fill="#64748B">Hyundai</text>
</svg>
